<svg width="327" height="249" viewBox="0 0 327 249" fill="none" xmlns="http://www.w3.org/2000/svg">
<path d="M8 8H319V241H8V8Z" fill="#F5F5F5"/>
<path d="M211.205 211.103H233L194.08 172L172.284 193.897L211.205 233V211.103ZM117.795 211.103H96L134.92 172L156.716 193.897L117.795 233V211.103Z" fill="#5895B3"/>
<path d="M164 125C142.16 125 125 142.16 125 164C125 185.84 142.16 203 164 203C185.84 203 203 185.84 203 164C203 142.16 185.84 125 164 125ZM164 187.4C150.74 187.4 140.6 177.26 140.6 164C140.6 150.74 150.74 140.6 164 140.6C177.26 140.6 187.4 150.74 187.4 164C187.4 177.26 177.26 187.4 164 187.4Z" fill="#264C70"/>
<path d="M0 0V249H327V0H0ZM311.429 210.094C298.193 210.094 288.071 220.209 288.071 233.438H38.9286C38.9286 220.209 28.8071 210.094 15.5714 210.094V38.9062C28.8071 38.9062 38.9286 28.7906 38.9286 15.5625H288.071C288.071 28.7906 298.193 38.9062 311.429 38.9062V210.094Z" fill="#264C70"/>
<path d="M163.052 149.833C163.356 148.923 164.644 148.923 164.948 149.833L167.588 157.719C167.725 158.126 168.107 158.401 168.537 158.401H177.015C177.991 158.401 178.389 159.656 177.591 160.218L170.784 165.019C170.423 165.273 170.272 165.734 170.412 166.153L173.024 173.956C173.331 174.872 172.289 175.648 171.499 175.091L164.576 170.209C164.231 169.965 163.769 169.965 163.424 170.209L156.501 175.091C155.711 175.648 154.669 174.872 154.976 173.956L157.588 166.153C157.728 165.734 157.577 165.273 157.216 165.019L150.409 160.218C149.611 159.656 150.009 158.401 150.985 158.401H159.463C159.893 158.401 160.275 158.126 160.412 157.719L163.052 149.833Z" fill="#F7C144"/>
</svg>
