<svg width="161" height="190" viewBox="0 0 161 190" fill="none" xmlns="http://www.w3.org/2000/svg">
<path d="M82.2802 175.334L81 174.57L79.7198 175.334L62.5 185.599V111.5H99.5V185.599L82.2802 175.334Z" fill="#5895B3" stroke="#264C70" stroke-width="5"/>
<path d="M127.205 128.603H124.705V131.103V146.944L91.8114 113.897L110.08 95.5438L142.984 128.603H127.205ZM36.2955 131.103V128.603H33.7955H18.0157L50.9205 95.5438L69.1886 113.897L36.2955 146.944V131.103Z" fill="#5895B3" stroke="#264C70" stroke-width="5"/>
<path d="M77.7872 35.4074C78.0746 31.8777 83.243 31.8777 83.5303 35.4073V35.4073C83.7834 38.5159 88.1069 39.062 89.125 36.1141V36.1141C90.2812 32.7668 95.2872 34.0521 94.6877 37.5424V37.5424C94.1598 40.6162 98.2116 42.2204 99.9309 39.6183V39.6183C101.883 36.6637 106.412 39.1535 104.964 42.3851V42.3851C103.688 45.231 107.213 47.7925 109.526 45.6997V45.6997C112.152 43.3234 115.919 46.8614 113.712 49.6311V49.6311C111.769 52.0703 114.547 55.4281 117.307 53.9762V53.9762C120.441 52.3275 123.21 56.6913 120.384 58.8252V58.8252C117.895 60.7045 119.751 64.6476 122.785 63.9277V63.9277C126.231 63.1103 127.828 68.0257 124.56 69.3897V69.3897C121.682 70.591 122.498 74.8717 125.617 74.929V74.929C129.157 74.9942 129.482 80.1524 125.977 80.6608V80.6608C122.891 81.1085 122.617 85.4578 125.623 86.2889V86.2889C129.036 87.2325 128.068 92.3094 124.547 91.9302V91.9302C121.446 91.5963 120.099 95.7409 122.804 97.2934V97.2934C125.876 99.0563 123.675 103.733 120.359 102.49V102.49C117.439 101.395 115.104 105.075 117.337 107.251V107.251C119.874 109.723 116.58 113.705 113.677 111.676V111.676C111.12 109.89 107.944 112.873 109.566 115.537V115.537C111.408 118.561 107.227 121.599 104.92 118.912V118.912C102.888 116.546 99.069 118.646 99.978 121.629V121.629C101.01 125.017 96.2047 126.919 94.6382 123.743V123.743C93.2586 120.946 89.0376 122.03 89.1762 125.146V125.146C89.3335 128.684 84.2058 129.331 83.4784 125.865V125.865C82.8377 122.813 78.4798 122.813 77.8392 125.865V125.865C77.1117 129.331 71.9841 128.684 72.1414 125.146V125.146C72.2799 122.03 68.059 120.946 66.6793 123.743V123.743C65.1128 126.919 60.3074 125.017 61.3396 121.629V121.629C62.2486 118.646 58.4298 116.546 56.3979 118.912V118.912C54.0907 121.599 49.9094 118.561 51.7516 115.537V115.537C53.374 112.873 50.1973 109.89 47.6408 111.676V111.676C44.738 113.705 41.4435 109.723 43.9801 107.251V107.251C46.2139 105.075 43.8788 101.395 40.9584 102.49V102.49C37.6423 103.733 35.4417 99.0563 38.5131 97.2934V97.2934C41.2181 95.7409 39.8714 91.5963 36.7705 91.9302V91.9302C33.2495 92.3094 32.2811 87.2325 35.6944 86.2889V86.2889C38.7004 85.4578 38.4268 81.1085 35.3403 80.6608V80.6608C31.8356 80.1524 32.1601 74.9942 35.7009 74.929V74.929C38.8192 74.8717 39.6358 70.591 36.7576 69.3897V69.3897C33.4895 68.0257 35.0866 63.1103 38.5323 63.9277V63.9277C41.5669 64.6476 43.4224 60.7045 40.9334 58.8252V58.8252C38.1071 56.6913 40.8765 52.3275 44.0107 53.9762V53.9762C46.7709 55.4281 49.5487 52.0703 47.6052 49.6311V49.6311C45.3984 46.8614 49.166 43.3234 51.7917 45.6997V45.6997C54.1041 47.7925 57.6297 45.231 56.354 42.3851V42.3851C54.9053 39.1535 59.4344 36.6636 61.3867 39.6183V39.6183C63.106 42.2204 67.1578 40.6162 66.6298 37.5424V37.5424C66.0304 34.0521 71.0364 32.7668 72.1925 36.1141V36.1141C73.2107 39.062 77.5342 38.5159 77.7872 35.4074V35.4074Z" fill="white"/>
<path d="M81 42C59.16 42 42 59.16 42 81C42 102.84 59.16 120 81 120C102.84 120 120 102.84 120 81C120 59.16 102.84 42 81 42ZM81 104.4C67.74 104.4 57.6 94.26 57.6 81C57.6 67.74 67.74 57.6 81 57.6C94.26 57.6 104.4 67.74 104.4 81C104.4 94.26 94.26 104.4 81 104.4Z" fill="#264C70"/>
<path d="M80.0517 66.8327C80.3564 65.9226 81.6436 65.9226 81.9483 66.8327L84.5882 74.7187C84.7247 75.1264 85.1066 75.4012 85.5365 75.4012H94.0147C94.9906 75.4012 95.3885 76.656 94.5909 77.2185L87.7839 82.0186C87.4229 82.2732 87.2717 82.7345 87.4119 83.1533L90.024 90.9561C90.3307 91.8722 89.2889 92.6476 88.4994 92.0908L81.5763 87.2088C81.2307 86.9651 80.7693 86.9651 80.4237 87.2088L73.5006 92.0908C72.7111 92.6476 71.6693 91.8722 71.976 90.9561L74.5881 83.1533C74.7283 82.7345 74.5771 82.2732 74.2161 82.0186L67.4091 77.2185C66.6115 76.656 67.0094 75.4012 67.9853 75.4012H76.4635C76.8934 75.4012 77.2753 75.1264 77.4118 74.7187L80.0517 66.8327Z" fill="#F7C144"/>
</svg>
